<svg xmlns="http://www.w3.org/2000/svg" width="1920" height="1080" viewBox="0 0 1920 1080"><g id="graphics"><rect x="0" y="0" width="1920" height="1080" rx="0" fill="#F4FAFC"/><rect x="0" y="660" width="1920" height="420" rx="0" fill="#E4F3EF"/><rect x="100" y="488" width="1720" height="172" rx="22" fill="#D2E8EC"/><circle cx="130" cy="510" r="14" fill="#79B7C2"/><circle cx="130" cy="638" r="14" fill="#79B7C2"/><polyline points="125,526 125,564" fill="none" stroke="#79B7C2" stroke-width="5"/><polyline points="135,526 135,564" fill="none" stroke="#79B7C2" stroke-width="5"/><polyline points="125,622 125,584" fill="none" stroke="#79B7C2" stroke-width="5"/><polyline points="135,622 135,584" fill="none" stroke="#79B7C2" stroke-width="5"/><circle cx="172" cy="510" r="14" fill="#79B7C2"/><circle cx="172" cy="638" r="14" fill="#79B7C2"/><polyline points="167,526 167,564" fill="none" stroke="#79B7C2" stroke-width="5"/><polyline points="177,526 177,564" fill="none" stroke="#79B7C2" stroke-width="5"/><polyline points="167,622 167,584" fill="none" stroke="#79B7C2" stroke-width="5"/><polyline points="177,622 177,584" fill="none" stroke="#79B7C2" stroke-width="5"/><circle cx="214" cy="510" r="14" fill="#79B7C2"/><circle cx="214" cy="638" r="14" fill="#79B7C2"/><polyline points="209,526 209,564" fill="none" stroke="#79B7C2" stroke-width="5"/><polyline points="219,526 219,564" fill="none" stroke="#79B7C2" stroke-width="5"/><polyline points="209,622 209,584" fill="none" stroke="#79B7C2" stroke-width="5"/><polyline points="219,622 219,584" fill="none" stroke="#79B7C2" stroke-width="5"/><circle cx="256" cy="510" r="14" fill="#79B7C2"/><circle cx="256" cy="638" r="14" fill="#79B7C2"/><polyline points="251,526 251,564" fill="none" stroke="#79B7C2" stroke-width="5"/><polyline points="261,526 261,564" fill="none" stroke="#79B7C2" stroke-width="5"/><polyline points="251,622 251,584" fill="none" stroke="#79B7C2" stroke-width="5"/><polyline points="261,622 261,584" fill="none" stroke="#79B7C2" stroke-width="5"/><circle cx="298" cy="510" r="14" fill="#79B7C2"/><circle cx="298" cy="638" r="14" fill="#79B7C2"/><polyline points="293,526 293,564" fill="none" stroke="#79B7C2" stroke-width="5"/><polyline points="303,526 303,564" fill="none" stroke="#79B7C2" stroke-width="5"/><polyline points="293,622 293,584" fill="none" stroke="#79B7C2" stroke-width="5"/><polyline points="303,622 303,584" fill="none" stroke="#79B7C2" stroke-width="5"/><circle cx="340" cy="510" r="14" fill="#79B7C2"/><circle cx="340" cy="638" r="14" fill="#79B7C2"/><polyline points="335,526 335,564" fill="none" stroke="#79B7C2" stroke-width="5"/><polyline points="345,526 345,564" fill="none" stroke="#79B7C2" stroke-width="5"/><polyline points="335,622 335,584" fill="none" stroke="#79B7C2" stroke-width="5"/><polyline points="345,622 345,584" fill="none" stroke="#79B7C2" stroke-width="5"/><circle cx="382" cy="510" r="14" fill="#79B7C2"/><circle cx="382" cy="638" r="14" fill="#79B7C2"/><polyline points="377,526 377,564" fill="none" stroke="#79B7C2" stroke-width="5"/><polyline points="387,526 387,564" fill="none" stroke="#79B7C2" stroke-width="5"/><polyline points="377,622 377,584" fill="none" stroke="#79B7C2" stroke-width="5"/><polyline points="387,622 387,584" fill="none" stroke="#79B7C2" stroke-width="5"/><circle cx="424" cy="510" r="14" fill="#79B7C2"/><circle cx="424" cy="638" r="14" fill="#79B7C2"/><polyline points="419,526 419,564" fill="none" stroke="#79B7C2" stroke-width="5"/><polyline points="429,526 429,564" fill="none" stroke="#79B7C2" stroke-width="5"/><polyline points="419,622 419,584" fill="none" stroke="#79B7C2" stroke-width="5"/><polyline points="429,622 429,584" fill="none" stroke="#79B7C2" stroke-width="5"/><circle cx="466" cy="510" r="14" fill="#79B7C2"/><circle cx="466" cy="638" r="14" fill="#79B7C2"/><polyline points="461,526 461,564" fill="none" stroke="#79B7C2" stroke-width="5"/><polyline points="471,526 471,564" fill="none" stroke="#79B7C2" stroke-width="5"/><polyline points="461,622 461,584" fill="none" stroke="#79B7C2" stroke-width="5"/><polyline points="471,622 471,584" fill="none" stroke="#79B7C2" stroke-width="5"/><circle cx="508" cy="510" r="14" fill="#79B7C2"/><circle cx="508" cy="638" r="14" fill="#79B7C2"/><polyline points="503,526 503,564" fill="none" stroke="#79B7C2" stroke-width="5"/><polyline points="513,526 513,564" fill="none" stroke="#79B7C2" stroke-width="5"/><polyline points="503,622 503,584" fill="none" stroke="#79B7C2" stroke-width="5"/><polyline points="513,622 513,584" fill="none" stroke="#79B7C2" stroke-width="5"/><circle cx="550" cy="510" r="14" fill="#79B7C2"/><circle cx="550" cy="638" r="14" fill="#79B7C2"/><polyline points="545,526 545,564" fill="none" stroke="#79B7C2" stroke-width="5"/><polyline points="555,526 555,564" fill="none" stroke="#79B7C2" stroke-width="5"/><polyline points="545,622 545,584" fill="none" stroke="#79B7C2" stroke-width="5"/><polyline points="555,622 555,584" fill="none" stroke="#79B7C2" stroke-width="5"/><circle cx="592" cy="510" r="14" fill="#79B7C2"/><circle cx="592" cy="638" r="14" fill="#79B7C2"/><polyline points="587,526 587,564" fill="none" stroke="#79B7C2" stroke-width="5"/><polyline points="597,526 597,564" fill="none" stroke="#79B7C2" stroke-width="5"/><polyline points="587,622 587,584" fill="none" stroke="#79B7C2" stroke-width="5"/><polyline points="597,622 597,584" fill="none" stroke="#79B7C2" stroke-width="5"/><circle cx="634" cy="510" r="14" fill="#79B7C2"/><circle cx="634" cy="638" r="14" fill="#79B7C2"/><polyline points="629,526 629,564" fill="none" stroke="#79B7C2" stroke-width="5"/><polyline points="639,526 639,564" fill="none" stroke="#79B7C2" stroke-width="5"/><polyline points="629,622 629,584" fill="none" stroke="#79B7C2" stroke-width="5"/><polyline points="639,622 639,584" fill="none" stroke="#79B7C2" stroke-width="5"/><circle cx="676" cy="510" r="14" fill="#79B7C2"/><circle cx="676" cy="638" r="14" fill="#79B7C2"/><polyline points="671,526 671,564" fill="none" stroke="#79B7C2" stroke-width="5"/><polyline points="681,526 681,564" fill="none" stroke="#79B7C2" stroke-width="5"/><polyline points="671,622 671,584" fill="none" stroke="#79B7C2" stroke-width="5"/><polyline points="681,622 681,584" fill="none" stroke="#79B7C2" stroke-width="5"/><circle cx="718" cy="510" r="14" fill="#79B7C2"/><circle cx="718" cy="638" r="14" fill="#79B7C2"/><polyline points="713,526 713,564" fill="none" stroke="#79B7C2" stroke-width="5"/><polyline points="723,526 723,564" fill="none" stroke="#79B7C2" stroke-width="5"/><polyline points="713,622 713,584" fill="none" stroke="#79B7C2" stroke-width="5"/><polyline points="723,622 723,584" fill="none" stroke="#79B7C2" stroke-width="5"/><circle cx="760" cy="510" r="14" fill="#79B7C2"/><circle cx="760" cy="638" r="14" fill="#79B7C2"/><polyline points="755,526 755,564" fill="none" stroke="#79B7C2" stroke-width="5"/><polyline points="765,526 765,564" fill="none" stroke="#79B7C2" stroke-width="5"/><polyline points="755,622 755,584" fill="none" stroke="#79B7C2" stroke-width="5"/><polyline points="765,622 765,584" fill="none" stroke="#79B7C2" stroke-width="5"/><circle cx="802" cy="510" r="14" fill="#79B7C2"/><circle cx="802" cy="638" r="14" fill="#79B7C2"/><polyline points="797,526 797,564" fill="none" stroke="#79B7C2" stroke-width="5"/><polyline points="807,526 807,564" fill="none" stroke="#79B7C2" stroke-width="5"/><polyline points="797,622 797,584" fill="none" stroke="#79B7C2" stroke-width="5"/><polyline points="807,622 807,584" fill="none" stroke="#79B7C2" stroke-width="5"/><circle cx="844" cy="510" r="14" fill="#79B7C2"/><circle cx="844" cy="638" r="14" fill="#79B7C2"/><polyline points="839,526 839,564" fill="none" stroke="#79B7C2" stroke-width="5"/><polyline points="849,526 849,564" fill="none" stroke="#79B7C2" stroke-width="5"/><polyline points="839,622 839,584" fill="none" stroke="#79B7C2" stroke-width="5"/><polyline points="849,622 849,584" fill="none" stroke="#79B7C2" stroke-width="5"/><circle cx="886" cy="510" r="14" fill="#79B7C2"/><circle cx="886" cy="638" r="14" fill="#79B7C2"/><polyline points="881,526 881,564" fill="none" stroke="#79B7C2" stroke-width="5"/><polyline points="891,526 891,564" fill="none" stroke="#79B7C2" stroke-width="5"/><polyline points="881,622 881,584" fill="none" stroke="#79B7C2" stroke-width="5"/><polyline points="891,622 891,584" fill="none" stroke="#79B7C2" stroke-width="5"/><circle cx="928" cy="510" r="14" fill="#79B7C2"/><circle cx="928" cy="638" r="14" fill="#79B7C2"/><polyline points="923,526 923,564" fill="none" stroke="#79B7C2" stroke-width="5"/><polyline points="933,526 933,564" fill="none" stroke="#79B7C2" stroke-width="5"/><polyline points="923,622 923,584" fill="none" stroke="#79B7C2" stroke-width="5"/><polyline points="933,622 933,584" fill="none" stroke="#79B7C2" stroke-width="5"/><circle cx="970" cy="510" r="14" fill="#79B7C2"/><circle cx="970" cy="638" r="14" fill="#79B7C2"/><polyline points="965,526 965,564" fill="none" stroke="#79B7C2" stroke-width="5"/><polyline points="975,526 975,564" fill="none" stroke="#79B7C2" stroke-width="5"/><polyline points="965,622 965,584" fill="none" stroke="#79B7C2" stroke-width="5"/><polyline points="975,622 975,584" fill="none" stroke="#79B7C2" stroke-width="5"/><circle cx="1012" cy="510" r="14" fill="#79B7C2"/><circle cx="1012" cy="638" r="14" fill="#79B7C2"/><polyline points="1007,526 1007,564" fill="none" stroke="#79B7C2" stroke-width="5"/><polyline points="1017,526 1017,564" fill="none" stroke="#79B7C2" stroke-width="5"/><polyline points="1007,622 1007,584" fill="none" stroke="#79B7C2" stroke-width="5"/><polyline points="1017,622 1017,584" fill="none" stroke="#79B7C2" stroke-width="5"/><circle cx="1054" cy="510" r="14" fill="#79B7C2"/><circle cx="1054" cy="638" r="14" fill="#79B7C2"/><polyline points="1049,526 1049,564" fill="none" stroke="#79B7C2" stroke-width="5"/><polyline points="1059,526 1059,564" fill="none" stroke="#79B7C2" stroke-width="5"/><polyline points="1049,622 1049,584" fill="none" stroke="#79B7C2" stroke-width="5"/><polyline points="1059,622 1059,584" fill="none" stroke="#79B7C2" stroke-width="5"/><circle cx="1096" cy="510" r="14" fill="#79B7C2"/><circle cx="1096" cy="638" r="14" fill="#79B7C2"/><polyline points="1091,526 1091,564" fill="none" stroke="#79B7C2" stroke-width="5"/><polyline points="1101,526 1101,564" fill="none" stroke="#79B7C2" stroke-width="5"/><polyline points="1091,622 1091,584" fill="none" stroke="#79B7C2" stroke-width="5"/><polyline points="1101,622 1101,584" fill="none" stroke="#79B7C2" stroke-width="5"/><circle cx="1138" cy="510" r="14" fill="#79B7C2"/><circle cx="1138" cy="638" r="14" fill="#79B7C2"/><polyline points="1133,526 1133,564" fill="none" stroke="#79B7C2" stroke-width="5"/><polyline points="1143,526 1143,564" fill="none" stroke="#79B7C2" stroke-width="5"/><polyline points="1133,622 1133,584" fill="none" stroke="#79B7C2" stroke-width="5"/><polyline points="1143,622 1143,584" fill="none" stroke="#79B7C2" stroke-width="5"/><circle cx="1180" cy="510" r="14" fill="#79B7C2"/><circle cx="1180" cy="638" r="14" fill="#79B7C2"/><polyline points="1175,526 1175,564" fill="none" stroke="#79B7C2" stroke-width="5"/><polyline points="1185,526 1185,564" fill="none" stroke="#79B7C2" stroke-width="5"/><polyline points="1175,622 1175,584" fill="none" stroke="#79B7C2" stroke-width="5"/><polyline points="1185,622 1185,584" fill="none" stroke="#79B7C2" stroke-width="5"/><circle cx="1222" cy="510" r="14" fill="#79B7C2"/><circle cx="1222" cy="638" r="14" fill="#79B7C2"/><polyline points="1217,526 1217,564" fill="none" stroke="#79B7C2" stroke-width="5"/><polyline points="1227,526 1227,564" fill="none" stroke="#79B7C2" stroke-width="5"/><polyline points="1217,622 1217,584" fill="none" stroke="#79B7C2" stroke-width="5"/><polyline points="1227,622 1227,584" fill="none" stroke="#79B7C2" stroke-width="5"/><circle cx="1264" cy="510" r="14" fill="#79B7C2"/><circle cx="1264" cy="638" r="14" fill="#79B7C2"/><polyline points="1259,526 1259,564" fill="none" stroke="#79B7C2" stroke-width="5"/><polyline points="1269,526 1269,564" fill="none" stroke="#79B7C2" stroke-width="5"/><polyline points="1259,622 1259,584" fill="none" stroke="#79B7C2" stroke-width="5"/><polyline points="1269,622 1269,584" fill="none" stroke="#79B7C2" stroke-width="5"/><circle cx="1306" cy="510" r="14" fill="#79B7C2"/><circle cx="1306" cy="638" r="14" fill="#79B7C2"/><polyline points="1301,526 1301,564" fill="none" stroke="#79B7C2" stroke-width="5"/><polyline points="1311,526 1311,564" fill="none" stroke="#79B7C2" stroke-width="5"/><polyline points="1301,622 1301,584" fill="none" stroke="#79B7C2" stroke-width="5"/><polyline points="1311,622 1311,584" fill="none" stroke="#79B7C2" stroke-width="5"/><circle cx="1348" cy="510" r="14" fill="#79B7C2"/><circle cx="1348" cy="638" r="14" fill="#79B7C2"/><polyline points="1343,526 1343,564" fill="none" stroke="#79B7C2" stroke-width="5"/><polyline points="1353,526 1353,564" fill="none" stroke="#79B7C2" stroke-width="5"/><polyline points="1343,622 1343,584" fill="none" stroke="#79B7C2" stroke-width="5"/><polyline points="1353,622 1353,584" fill="none" stroke="#79B7C2" stroke-width="5"/><circle cx="1390" cy="510" r="14" fill="#79B7C2"/><circle cx="1390" cy="638" r="14" fill="#79B7C2"/><polyline points="1385,526 1385,564" fill="none" stroke="#79B7C2" stroke-width="5"/><polyline points="1395,526 1395,564" fill="none" stroke="#79B7C2" stroke-width="5"/><polyline points="1385,622 1385,584" fill="none" stroke="#79B7C2" stroke-width="5"/><polyline points="1395,622 1395,584" fill="none" stroke="#79B7C2" stroke-width="5"/><circle cx="1432" cy="510" r="14" fill="#79B7C2"/><circle cx="1432" cy="638" r="14" fill="#79B7C2"/><polyline points="1427,526 1427,564" fill="none" stroke="#79B7C2" stroke-width="5"/><polyline points="1437,526 1437,564" fill="none" stroke="#79B7C2" stroke-width="5"/><polyline points="1427,622 1427,584" fill="none" stroke="#79B7C2" stroke-width="5"/><polyline points="1437,622 1437,584" fill="none" stroke="#79B7C2" stroke-width="5"/><circle cx="1474" cy="510" r="14" fill="#79B7C2"/><circle cx="1474" cy="638" r="14" fill="#79B7C2"/><polyline points="1469,526 1469,564" fill="none" stroke="#79B7C2" stroke-width="5"/><polyline points="1479,526 1479,564" fill="none" stroke="#79B7C2" stroke-width="5"/><polyline points="1469,622 1469,584" fill="none" stroke="#79B7C2" stroke-width="5"/><polyline points="1479,622 1479,584" fill="none" stroke="#79B7C2" stroke-width="5"/><circle cx="1516" cy="510" r="14" fill="#79B7C2"/><circle cx="1516" cy="638" r="14" fill="#79B7C2"/><polyline points="1511,526 1511,564" fill="none" stroke="#79B7C2" stroke-width="5"/><polyline points="1521,526 1521,564" fill="none" stroke="#79B7C2" stroke-width="5"/><polyline points="1511,622 1511,584" fill="none" stroke="#79B7C2" stroke-width="5"/><polyline points="1521,622 1521,584" fill="none" stroke="#79B7C2" stroke-width="5"/><circle cx="1558" cy="510" r="14" fill="#79B7C2"/><circle cx="1558" cy="638" r="14" fill="#79B7C2"/><polyline points="1553,526 1553,564" fill="none" stroke="#79B7C2" stroke-width="5"/><polyline points="1563,526 1563,564" fill="none" stroke="#79B7C2" stroke-width="5"/><polyline points="1553,622 1553,584" fill="none" stroke="#79B7C2" stroke-width="5"/><polyline points="1563,622 1563,584" fill="none" stroke="#79B7C2" stroke-width="5"/><circle cx="1600" cy="510" r="14" fill="#79B7C2"/><circle cx="1600" cy="638" r="14" fill="#79B7C2"/><polyline points="1595,526 1595,564" fill="none" stroke="#79B7C2" stroke-width="5"/><polyline points="1605,526 1605,564" fill="none" stroke="#79B7C2" stroke-width="5"/><polyline points="1595,622 1595,584" fill="none" stroke="#79B7C2" stroke-width="5"/><polyline points="1605,622 1605,584" fill="none" stroke="#79B7C2" stroke-width="5"/><circle cx="1642" cy="510" r="14" fill="#79B7C2"/><circle cx="1642" cy="638" r="14" fill="#79B7C2"/><polyline points="1637,526 1637,564" fill="none" stroke="#79B7C2" stroke-width="5"/><polyline points="1647,526 1647,564" fill="none" stroke="#79B7C2" stroke-width="5"/><polyline points="1637,622 1637,584" fill="none" stroke="#79B7C2" stroke-width="5"/><polyline points="1647,622 1647,584" fill="none" stroke="#79B7C2" stroke-width="5"/><circle cx="1684" cy="510" r="14" fill="#79B7C2"/><circle cx="1684" cy="638" r="14" fill="#79B7C2"/><polyline points="1679,526 1679,564" fill="none" stroke="#79B7C2" stroke-width="5"/><polyline points="1689,526 1689,564" fill="none" stroke="#79B7C2" stroke-width="5"/><polyline points="1679,622 1679,584" fill="none" stroke="#79B7C2" stroke-width="5"/><polyline points="1689,622 1689,584" fill="none" stroke="#79B7C2" stroke-width="5"/><circle cx="1726" cy="510" r="14" fill="#79B7C2"/><circle cx="1726" cy="638" r="14" fill="#79B7C2"/><polyline points="1721,526 1721,564" fill="none" stroke="#79B7C2" stroke-width="5"/><polyline points="1731,526 1731,564" fill="none" stroke="#79B7C2" stroke-width="5"/><polyline points="1721,622 1721,584" fill="none" stroke="#79B7C2" stroke-width="5"/><polyline points="1731,622 1731,584" fill="none" stroke="#79B7C2" stroke-width="5"/><circle cx="1768" cy="510" r="14" fill="#79B7C2"/><circle cx="1768" cy="638" r="14" fill="#79B7C2"/><polyline points="1763,526 1763,564" fill="none" stroke="#79B7C2" stroke-width="5"/><polyline points="1773,526 1773,564" fill="none" stroke="#79B7C2" stroke-width="5"/><polyline points="1763,622 1763,584" fill="none" stroke="#79B7C2" stroke-width="5"/><polyline points="1773,622 1773,584" fill="none" stroke="#79B7C2" stroke-width="5"/></g><g id="editable-labels"><text x="100" y="70" dominant-baseline="text-before-edge" text-anchor="start" font-family="Malgun Gothic,sans-serif" font-size="60" font-weight="700" fill="#153C4A">세포와 세포막</text><text x="100" y="235" dominant-baseline="text-before-edge" text-anchor="start" font-family="Malgun Gothic,sans-serif" font-size="48" font-weight="700" fill="#153C4A">세포 밖</text><text x="100" y="815" dominant-baseline="text-before-edge" text-anchor="start" font-family="Malgun Gothic,sans-serif" font-size="48" font-weight="700" fill="#153C4A">세포 안</text><text x="1490" y="695" dominant-baseline="text-before-edge" text-anchor="start" font-family="Malgun Gothic,sans-serif" font-size="34" font-weight="700" fill="#153C4A">세포막</text><text x="100" y="970" dominant-baseline="text-before-edge" text-anchor="start" font-family="Malgun Gothic,sans-serif" font-size="26" font-weight="400" fill="#153C4A">설명용 개념도 · 실제 크기와 구조를 단순화</text></g></svg>